# xmcd
#
# Track frame offsets:
#	150
#	20925
#	36883
#	64497
#	82550
#	100026
#	112854
#	126618
#	142222
#	156661
#	175975
#	189221
#	216731
#	255229
#	272525
#
# Disc length: 3842 seconds
#
# Revision: 1
# Processed by: cddbd v1.5.2PL0 Copyright (c) Steve Scherf et al.
# Submitted via: EZCDAudioConverter 2.1.7.1
#
DISCID=dd0f000f
DTITLE=V/A - Soul Cal: Disco and Modern Soul 1971-1982
DYEAR=1900
DGENRE=
TTITLE0=Luther Davis - You Can Be A Star
TTITLE1=U.P.C. All Stars - Don't Get Discouraged
TTITLE2=Pure Essence - Wake Up
TTITLE3=Anubis - Ecology
TTITLE4=Rhythm Machine - Put A Smile On Time
TTITLE5=Ellis and Cephas - I'm Gonna Miss You Girl
TTITLE6=Mixed Sugar - It's A Bad Feeling
TTITLE7=Mixed Feelings - Sha-La-La
TTITLE8=Key and Cleary - What It Takes To Live
TTITLE9=Leon Mitchison and The Eastex Freeway Band - Love Is
TTITLE10=Clifford Nyren - Keep Running Away
TTITLE11=Stanton Davis' Ghetto Mysticism - Things Cannot Stop Forever
TTITLE12=C. Henry Woods Troupe - The Stranger
TTITLE13=Record Player - Free Your Mind
TTITLE14=Freedom Express - Get Down
EXTD=
EXTT0=
EXTT1=
EXTT2=
EXTT3=
EXTT4=
EXTT5=
EXTT6=
EXTT7=
EXTT8=
EXTT9=
EXTT10=
EXTT11=
EXTT12=
EXTT13=
EXTT14=
PLAYORDER=
